<?xml version="1.0" encoding="utf-8"?>
<!-- Generator: Adobe Illustrator 23.0.0, SVG Export Plug-In . SVG Version: 6.00 Build 0)  -->
<svg version="1.1" id="Layer_1" xmlns="http://www.w3.org/2000/svg" xmlns:xlink="http://www.w3.org/1999/xlink" x="0px" y="0px"
	 viewBox="0 0 1920 1080" style="enable-background:new 0 0 1920 1080;" xml:space="preserve">
<style type="text/css">
	.st0{fill:url(#SVGID_1_);}
	.st1{fill:url(#SVGID_2_);}
	.st2{opacity:0.1;}
	.st3{fill:#FFFFFF;}
</style>
<g transform="translate(173.229 335.188)">
	
		<linearGradient id="SVGID_1_" gradientUnits="userSpaceOnUse" x1="-114.348" y1="1963.8616" x2="-113.348" y2="1962.8696" gradientTransform="matrix(1920 0 0 -1080 219378.6875 2120641.75)">
		<stop  offset="0" style="stop-color:#7421AB"/>
		<stop  offset="1" style="stop-color:#3221AB"/>
	</linearGradient>
	<path class="st0" d="M-173.2-335.2h1920v1080h-1920V-335.2z"/>
	
		<linearGradient id="SVGID_2_" gradientUnits="userSpaceOnUse" x1="-113.2285" y1="1963.6797" x2="-114.4845" y2="1962.6797" gradientTransform="matrix(1939.3943 0 0 -1211.8652 221591.875 2379436)">
		<stop  offset="0" style="stop-color:#77FFAD"/>
		<stop  offset="0.377" style="stop-color:#2AA3D4"/>
		<stop  offset="0.774" style="stop-color:#7421AB"/>
		<stop  offset="1" style="stop-color:#7421AB"/>
	</linearGradient>
	<path class="st1" d="M1034.4-416.3c160.1-139,729.6,81.1,729.6,81.1v792.9c0,0-586.4-232.7-760.5-55.5
		C660.1,751.5,127.2,510.2-46.6,749.6h-128.9V527.4c0,0-1.4-49,248.5-229.4S641.5,165.2,829.8,27.7
		C1173.3-223.2,874.3-277.3,1034.4-416.3z"/>
	<g class="st2">
		<path class="st3" d="M526-84.6L174.9-341c-8.7-6.3-20.9-4.4-27.2,4.2L119-297.4c-6.3,8.7-4.4,20.9,4.2,27.2c0,0,0,0,0,0
			L403.5-65.5c8.7,6.3,10.6,18.5,4.2,27.2c0,0,0,0,0,0L355.7,33c-6.3,8.7-18.5,10.6-27.2,4.2c0,0,0,0,0,0L119.6-115.3L-89.2-267.8
			c-8.7-6.3-10.6-18.5-4.2-27.2L85.4-539.9c6.3-8.7,18.5-10.6,27.2-4.2c0,0,0,0,0,0l244.9,178.9c8.7,6.3,10.6,18.5,4.2,27.2
			c0,0,0,0,0,0l-14.6,19.9c-6.3,8.7-4.4,20.9,4.2,27.2c0,0,0,0,0,0l39.3,28.7c8.7,6.3,20.9,4.4,27.2-4.2c0,0,0,0,0,0l66.3-90.7
			c6.3-8.7,4.4-20.9-4.2-27.2L93.5-666.6c-8.7-6.3-20.9-4.4-27.2,4.2c0,0,0,0,0,0l-242,331.4l0,0l-167,228.6
			c-6.3,8.7-4.4,20.9,4.2,27.2L12.6,181.2c8.7,6.3,20.9,4.4,27.2-4.2c0,0,0,0,0,0l28.7-39.3c6.3-8.7,4.4-20.9-4.2-27.2L-216-94.2
			c-8.7-6.3-10.6-18.5-4.2-27.2l52.1-71.3c6.3-8.7,18.5-10.6,27.2-4.2L67.9-44.5L276.8,108c8.7,6.3,10.6,18.5,4.2,27.2c0,0,0,0,0,0
			L102.2,380.2c-6.3,8.7-18.5,10.6-27.2,4.2L-170,205.5c-8.7-6.3-10.6-18.5-4.2-27.2l14.6-19.9c6.3-8.7,4.4-20.9-4.2-27.2l0,0
			l-39.3-28.7c-8.7-6.3-20.9-4.4-27.2,4.2l-66.3,90.7c-6.3,8.7-4.4,20.9,4.2,27.2L94,506.9c8.7,6.3,20.9,4.4,27.2-4.2l242-331.4l0,0
			l167-228.6C536.6-66.1,534.7-78.3,526-84.6z"/>
		<path class="st3" d="M2032,1065.4L1681,809c-8.7-6.3-20.9-4.4-27.2,4.2l-28.7,39.3c-6.3,8.7-4.4,20.9,4.2,27.2c0,0,0,0,0,0
			l280.3,204.7c8.7,6.3,10.6,18.5,4.2,27.2c0,0,0,0,0,0l-52.1,71.3c-6.3,8.7-18.5,10.6-27.2,4.2c0,0,0,0,0,0l-208.8-152.5
			l-208.8-152.5c-8.7-6.3-10.6-18.5-4.2-27.2l178.9-244.9c6.3-8.7,18.5-10.6,27.2-4.2c0,0,0,0,0,0l244.9,178.9
			c8.7,6.3,10.6,18.5,4.2,27.2c0,0,0,0,0,0l-14.6,19.9c-6.3,8.7-4.4,20.9,4.2,27.2c0,0,0,0,0,0l39.3,28.7c8.7,6.3,20.9,4.4,27.2-4.2
			c0,0,0,0,0,0l66.3-90.7c6.3-8.7,4.4-20.9-4.2-27.2l-386.5-282.2c-8.7-6.3-20.9-4.4-27.2,4.2c0,0,0,0,0,0l-242,331.4l0,0
			l-167,228.6c-6.3,8.7-4.4,20.9,4.2,27.2l351.1,256.4c8.7,6.3,20.9,4.4,27.2-4.2c0,0,0,0,0,0l28.7-39.3c6.3-8.7,4.4-20.9-4.2-27.2
			L1290,1055.8c-8.7-6.3-10.6-18.5-4.2-27.2l52.1-71.3c6.3-8.7,18.5-10.6,27.2-4.2l208.8,152.5l208.9,152.5
			c8.7,6.3,10.6,18.5,4.2,27.2c0,0,0,0,0,0l-178.9,244.9c-6.3,8.7-18.5,10.6-27.2,4.2L1336,1355.5c-8.7-6.3-10.6-18.5-4.2-27.2
			l14.6-19.9c6.3-8.7,4.4-20.9-4.2-27.2l0,0l-39.3-28.7c-8.7-6.3-20.9-4.4-27.2,4.2l-66.3,90.7c-6.3,8.7-4.4,20.9,4.2,27.2
			l386.4,282.2c8.7,6.3,20.9,4.4,27.2-4.2l242-331.4l0,0l167-228.6C2042.6,1083.9,2040.7,1071.7,2032,1065.4z"/>
	</g>
</g>
</svg>
