<svg xmlns="http://www.w3.org/2000/svg" viewBox="0 0 393.56 51.57"><defs><style>.cls-1{fill:#fff;}</style></defs><title>Asset 2</title><g id="Layer_2" data-name="Layer 2"><g id="Layer_1-2" data-name="Layer 1"><path class="cls-1" d="M160.23,47.19h.07l-.1,1.12a8.75,8.75,0,0,1-2.91.51c-3.69,0-5.08-2.83-5.08-5.78,0-3.21,1.65-6,5.27-6a8.05,8.05,0,0,1,2.7.47l.15,1.13h-.07a8.6,8.6,0,0,0-2.73-.49c-2.42,0-4,1.68-4,4.83,0,2.37.93,4.79,4,4.79A7.48,7.48,0,0,0,160.23,47.19Z"/><path class="cls-1" d="M161.88,44.9c0-2.43,1.33-4,3.76-4s3.45,1.65,3.45,3.86-1.08,4.06-3.69,4.06S161.88,47.05,161.88,44.9Zm6,0c0-1.93-.7-3-2.33-3-1.4,0-2.4.91-2.4,3s.91,3,2.35,3S167.86,46.85,167.86,44.85Z"/><path class="cls-1" d="M182.33,43.81v4.85h-1.2V43.94c0-1.39-.55-2-1.71-2a2,2,0,0,0-2.09,1.9v4.85h-1.2V43.94c0-1.39-.54-2-1.69-2a1.93,1.93,0,0,0-2.08,2v4.77h-1.2v-7.6h1.1l.05,1.09h0a2.59,2.59,0,0,1,2.41-1.25,2.31,2.31,0,0,1,2.35,1.41,2.86,2.86,0,0,1,2.62-1.41C181.27,40.9,182.33,41.78,182.33,43.81Z"/><path class="cls-1" d="M196,43.81v4.85h-1.2V43.94c0-1.39-.54-2-1.71-2a1.93,1.93,0,0,0-2.08,1.9v4.85h-1.2V43.94c0-1.39-.54-2-1.7-2a1.93,1.93,0,0,0-2.08,2v4.77h-1.2v-7.6H186l0,1.09h0a2.58,2.58,0,0,1,2.4-1.25,2.3,2.3,0,0,1,2.35,1.41,2.89,2.89,0,0,1,2.63-1.41C195,40.9,196,41.78,196,43.81Z"/><path class="cls-1" d="M198.47,46V41.06h1.2v4.72c0,1.39.49,2,1.73,2a2,2,0,0,0,2.21-2.05v-4.7h1.2v7.6h-1.08l-.09-1h0a2.66,2.66,0,0,1-2.51,1.21C199.43,48.82,198.47,48,198.47,46Z"/><path class="cls-1" d="M213.86,43.81v4.85h-1.2V43.94c0-1.39-.57-2-1.86-2a2,2,0,0,0-2.22,2v4.77h-1.2v-7.6h1.1l.05,1.1,0,0a2.72,2.72,0,0,1,2.54-1.28C212.79,40.9,213.86,41.78,213.86,43.81Z"/><path class="cls-1" d="M217,37.49c.52,0,.8.3.8.88s-.28.86-.79.86-.78-.3-.78-.86S216.51,37.49,217,37.49Zm.6,3.57v7.6h-1.18v-7.6Z"/><path class="cls-1" d="M221.67,42v4.54c0,1,.29,1.3,1.1,1.3a4.21,4.21,0,0,0,1.35-.27h0l-.12,1a4.3,4.3,0,0,1-1.53.3c-1.6,0-2.05-.81-2.05-2V42h-1.35v-.93h1.35V39l1.2-.32v2.42h2.11l.1.93Z"/><path class="cls-1" d="M224.64,41.06H226l2.19,6.24h0l1.91-6.24h1.24l-2.59,7.59c-.67,2-1.06,2.92-2.61,2.92a3.32,3.32,0,0,1-1.33-.24l-.06-.94h0a3.41,3.41,0,0,0,1.18.21c.87,0,1.09-.32,1.59-1.83Z"/><path class="cls-1" d="M242.33,48.66h-1.08l-.08-1h0a2.69,2.69,0,0,1-2.37,1.18c-2,0-3.32-1.17-3.32-3.94,0-2.35,1.32-4,3.46-4a3.26,3.26,0,0,1,2.2.75v-4.5h1.2Zm-1.2-5.9a2.68,2.68,0,0,0-2-.89c-1.25,0-2.36.77-2.36,3.09,0,1.85.77,2.9,2.28,2.9a2,2,0,0,0,2.13-1.94Z"/><path class="cls-1" d="M249.22,42.21h-.06a3,3,0,0,0-.9-.13,2.1,2.1,0,0,0-2.16,2.1v4.48h-1.2v-7.6H246l.07,1.39v0a2.31,2.31,0,0,1,2.19-1.57,2.67,2.67,0,0,1,.85.13Z"/><path class="cls-1" d="M251.35,37.49c.53,0,.8.3.8.88s-.27.86-.79.86-.78-.3-.78-.86S250.87,37.49,251.35,37.49Zm.61,3.57v7.6h-1.19v-7.6Z"/><path class="cls-1" d="M260.61,41.06l-2.83,7.6h-1.57l-2.8-7.6h1.33l2.29,6.5h0l2.31-6.5Z"/><path class="cls-1" d="M262.68,45.08c0,1.73.76,2.73,2.6,2.73a5.89,5.89,0,0,0,2.42-.54h.06l-.11,1a6.1,6.1,0,0,1-2.49.51c-2.52,0-3.73-1.36-3.73-4s1.41-3.94,3.53-3.94,3.09,1.21,3.09,3.55c0,.19,0,.43,0,.63Zm0-.88h4.18c0-1.36-.39-2.37-1.92-2.37C264,41.83,262.8,42.27,262.69,44.2Z"/><path class="cls-1" d="M276.53,43.81v4.85h-1.2V43.94c0-1.39-.57-2-1.85-2a2,2,0,0,0-2.23,2v4.77h-1.2v-7.6h1.11l0,1.1,0,0a2.72,2.72,0,0,1,2.54-1.28C275.46,40.9,276.53,41.78,276.53,43.81Z"/><path class="cls-1" d="M283.44,37.15V42l0,0A2.7,2.7,0,0,1,286,40.9c1.68,0,3.14,1.05,3.14,3.71s-1.36,4.21-3.51,4.21a3,3,0,0,1-2.25-1l-.07.8h-1V37.15Zm2.2,4.72a2,2,0,0,0-2.2,2v3a2.7,2.7,0,0,0,2,1c1.7,0,2.44-1.33,2.44-3.13C287.88,43.22,287.35,41.87,285.64,41.87Z"/><path class="cls-1" d="M290.13,41.06h1.33l2.19,6.24h0l1.9-6.24h1.25l-2.59,7.59c-.68,2-1.06,2.92-2.61,2.92a3.32,3.32,0,0,1-1.33-.24l-.06-.94h0a3.51,3.51,0,0,0,1.19.21c.86,0,1.09-.32,1.58-1.83Z"/><path class="cls-1" d="M307.81,48.66h-1.07l-.08-1h0a2.67,2.67,0,0,1-2.36,1.18c-2,0-3.32-1.17-3.32-3.94,0-2.35,1.31-4,3.46-4a3.21,3.21,0,0,1,2.19.75v-4.5h1.2Zm-1.2-5.9a2.66,2.66,0,0,0-2.05-.89c-1.24,0-2.35.77-2.35,3.09,0,1.85.77,2.9,2.27,2.9a2,2,0,0,0,2.13-1.94Z"/><path class="cls-1" d="M310.59,41.25a10.46,10.46,0,0,1,2.49-.35c1.48,0,2.8.38,2.8,2.43V47c0,.65.11.88.53.88a2.25,2.25,0,0,0,.6-.11l-.06.86a2.87,2.87,0,0,1-1,.16,1.11,1.11,0,0,1-1.15-1.18,3.06,3.06,0,0,1-2.61,1.21c-1.6,0-2.43-.78-2.43-2.14,0-1.68,1.25-2.28,3.23-2.39l1.65-.08V43.4c0-1.4-.85-1.51-1.81-1.51a9.68,9.68,0,0,0-2.27.37h-.07Zm4.09,4.93V45.06l-1.6.08c-1.46.06-2.07.59-2.07,1.47s.61,1.28,1.51,1.28C313.84,47.89,314.68,47.09,314.68,46.18Z"/><path class="cls-1" d="M320,42v4.54c0,1,.29,1.3,1.11,1.3a4.2,4.2,0,0,0,1.34-.27h.05l-.11,1a4.4,4.4,0,0,1-1.54.3c-1.6,0-2.05-.81-2.05-2V42h-1.34v-.93h1.34V39l1.2-.32v2.42h2.11l.1.93Z"/><path class="cls-1" d="M324.21,41.25a10.38,10.38,0,0,1,2.48-.35c1.49,0,2.8.38,2.8,2.43V47c0,.65.11.88.53.88a2.25,2.25,0,0,0,.61-.11l-.07.86a2.81,2.81,0,0,1-1,.16,1.1,1.1,0,0,1-1.15-1.18,3.08,3.08,0,0,1-2.61,1.21c-1.6,0-2.44-.78-2.44-2.14,0-1.68,1.25-2.28,3.24-2.39l1.65-.08V43.4c0-1.4-.85-1.51-1.81-1.51a9.76,9.76,0,0,0-2.28.37h-.06Zm4.08,4.93V45.06l-1.6.08c-1.46.06-2.06.59-2.06,1.47s.6,1.28,1.5,1.28C327.46,47.89,328.29,47.09,328.29,46.18Z"/><path class="cls-1" d="M153.09,25.12V20.39a15.15,15.15,0,0,0,5.79,1.66,8.39,8.39,0,0,0,2.05-.13c1.76-.25,2.78-.93,2.78-2.05,0-1.53-1.37-2.33-4.54-3.48-4-1.48-6.4-3.17-6.4-7.17s3.39-6.72,8.35-6.72a15.83,15.83,0,0,1,6,1.15V8.19a11.93,11.93,0,0,0-5.63-1.4c-2.37,0-3.91.93-3.91,2.4s1.25,2.27,4.38,3.45c4,1.57,6.53,3.27,6.53,7.14,0,4.16-3.13,6.65-8.57,6.65A17.87,17.87,0,0,1,153.09,25.12Z"/><path class="cls-1" d="M176,10l.13,1.82a3.65,3.65,0,0,1-.13,1.12h.06a5.59,5.59,0,0,1,4.55-3.23,4.86,4.86,0,0,1,1.57,0,4.57,4.57,0,0,1,3.93,3.07,6.55,6.55,0,0,1,5.35-3.2C195,9.54,197,11.72,197,16V26h-4.8V16.67c0-1.56-.54-2.78-2.08-2.78-2.72,0-3.42,2.5-3.42,5.09v7h-4.77V16.64c0-1.5-.45-2.75-2-2.75-2.69,0-3.45,2.47-3.45,5.09v7h-4.8V10Z"/><path class="cls-1" d="M201,10.63a14.85,14.85,0,0,1,5.86-1.09c4.93,0,7.39,2.37,7.39,6.37V26H210l-.09-1.48a4.45,4.45,0,0,1,.06-1.12h-.06a5.48,5.48,0,0,1-5,3c-2.76,0-5.09-1.6-5.09-4.86,0-3.9,4-5.82,9.73-5v-.39c0-1.92-1.32-2.62-3.43-2.62A10.42,10.42,0,0,0,201,14.91ZM209.41,19c-3.59-.57-5.09.55-5.09,2.05a1.65,1.65,0,0,0,1.82,1.7A3.51,3.51,0,0,0,209.41,19Z"/><path class="cls-1" d="M218.14,10h4.36l.09,1.57a9.31,9.31,0,0,0,0,1,5.6,5.6,0,0,1,4.74-3.07,3.76,3.76,0,0,1,1,.1v4.67a2.34,2.34,0,0,0-1-.2c-2.43,0-4.42,2.15-4.42,5.06V26h-4.77Z"/><path class="cls-1" d="M232.48,10V5.19h4.64V10h4.26v3.74h-4.26v6.43c0,1.7,1,2.27,2,2.27a6.49,6.49,0,0,0,2.72-.67V25.7a10,10,0,0,1-4.07.73c-2.52,0-5-1.18-5.34-4.54,0-.51-.09-1.06-.09-1.63V13.73h-2.21V10Z"/><path class="cls-1" d="M253.09,26V3h7.36c7.84,0,12.8,4.77,12.8,11.52S268.32,26,260.51,26ZM258,7.08V21.86h2.44c4.92,0,7.84-3.2,7.84-7.39s-2.92-7.39-7.91-7.39Z"/><path class="cls-1" d="M276.61,10.63a14.79,14.79,0,0,1,5.85-1.09c4.93,0,7.39,2.37,7.39,6.37V26h-4.32l-.09-1.48a5.12,5.12,0,0,1,.06-1.12h-.06a5.48,5.48,0,0,1-5,3c-2.75,0-5.09-1.6-5.09-4.86,0-3.9,4-5.82,9.73-5v-.39c0-1.92-1.31-2.62-3.43-2.62a10.34,10.34,0,0,0-5.08,1.37ZM285,19c-3.58-.57-5.09.55-5.09,2.05a1.66,1.66,0,0,0,1.83,1.7A3.51,3.51,0,0,0,285,19Z"/><path class="cls-1" d="M294.69,10V5.19h4.64V10h4.25v3.74h-4.25v6.43c0,1.7,1,2.27,2,2.27a6.41,6.41,0,0,0,2.72-.67V25.7a9.92,9.92,0,0,1-4.06.73c-2.53,0-5-1.18-5.34-4.54,0-.51-.1-1.06-.1-1.63V13.73h-2.21V10Z"/><path class="cls-1" d="M307.36,10.63a14.79,14.79,0,0,1,5.85-1.09c4.93,0,7.39,2.37,7.39,6.37V26h-4.31l-.1-1.48a5.12,5.12,0,0,1,.06-1.12h-.06a5.48,5.48,0,0,1-5,3c-2.75,0-5.09-1.6-5.09-4.86,0-3.9,4-5.82,9.73-5v-.39c0-1.92-1.31-2.62-3.42-2.62a10.35,10.35,0,0,0-5.09,1.37ZM315.74,19c-3.58-.57-5.09.55-5.09,2.05a1.66,1.66,0,0,0,1.83,1.7A3.51,3.51,0,0,0,315.74,19Z"/><path class="cls-1" d="M344,26.43c-7.29,0-12.38-5.21-12.38-12s5.15-12,12.29-12a17,17,0,0,1,7.23,1.57V8.61A15.93,15.93,0,0,0,344.19,7a7.24,7.24,0,0,0-7.65,7.46A7.17,7.17,0,0,0,344,22a11.48,11.48,0,0,0,3.14-.44V15.36h4.7v9.31A18,18,0,0,1,344,26.43Z"/><path class="cls-1" d="M355.42,10h4.35l.1,1.57a9.31,9.31,0,0,0,0,1,5.58,5.58,0,0,1,4.74-3.07,3.76,3.76,0,0,1,1,.1v4.67a2.4,2.4,0,0,0-1.06-.2c-2.43,0-4.41,2.15-4.41,5.06V26h-4.77Z"/><path class="cls-1" d="M370.81,2.82a2.45,2.45,0,0,1,2.66,2.59,2.66,2.66,0,0,1-5.31,0A2.43,2.43,0,0,1,370.81,2.82Zm2.4,7.17V26h-4.8V10Z"/><path class="cls-1" d="M393.56,26h-4.35l-.09-1.48a3.85,3.85,0,0,1,.06-1.05h-.06a5.84,5.84,0,0,1-5.19,3c-4.13,0-7.45-3.2-7.45-8.44s3.32-8.45,7.32-8.45a6.14,6.14,0,0,1,5,2.33h.06a6.89,6.89,0,0,1-.09-1.31V3h4.76ZM381,18c0,2.62,1.6,4.41,3.81,4.41,1.92,0,3.84-1.47,3.84-4.41s-1.92-4.42-3.84-4.42C382.59,13.57,381,15.33,381,18Z"/><path class="cls-1" d="M24.45,0h-13a1.3,1.3,0,0,0-1.3,1.3V33.13a1.3,1.3,0,0,0,1.3,1.3h3.24A1.3,1.3,0,0,0,16,33.13V5.83H34.52v7.11a1.29,1.29,0,0,0,1.29,1.29h3.24a1.3,1.3,0,0,0,1.3-1.29V1.3A1.3,1.3,0,0,0,39.05,0Z"/><path class="cls-1" d="M24.45,15.53v27.3H5.83V35.72a1.3,1.3,0,0,0-1.3-1.29H1.3A1.3,1.3,0,0,0,0,35.72V47.37a1.3,1.3,0,0,0,1.3,1.29H29a1.29,1.29,0,0,0,1.29-1.29V15.53A1.3,1.3,0,0,0,29,14.23H25.75A1.3,1.3,0,0,0,24.45,15.53Z"/><path class="cls-1" d="M79.25,48.66H47.42a1.3,1.3,0,0,1-1.3-1.29V15.53a1.3,1.3,0,0,1,1.3-1.3h7.47a1.3,1.3,0,0,1,1.3,1.3v3.24a1.3,1.3,0,0,1-1.3,1.3H52V42.83H74.72v-37H66.25V30.22A1.3,1.3,0,0,1,65,31.51H61.71a1.29,1.29,0,0,1-1.29-1.29V1.3A1.3,1.3,0,0,1,61.71,0H79.25a1.3,1.3,0,0,1,1.3,1.3V47.37A1.3,1.3,0,0,1,79.25,48.66Z"/><path class="cls-1" d="M124.25,48.66H106.71a1.29,1.29,0,0,1-1.29-1.29V18.45a1.3,1.3,0,0,1,1.29-1.3H110a1.3,1.3,0,0,1,1.3,1.3V42.83h8.46v-37H97V28.6h2.94a1.29,1.29,0,0,1,1.29,1.29v3.24a1.3,1.3,0,0,1-1.29,1.3H92.41a1.3,1.3,0,0,1-1.29-1.3V1.3A1.3,1.3,0,0,1,92.41,0h31.84a1.3,1.3,0,0,1,1.29,1.3V47.37A1.29,1.29,0,0,1,124.25,48.66Z"/></g></g></svg>